<?xml version="1.0" encoding="UTF-8" standalone="no"?>
<svg
   xmlns:dc="http://purl.org/dc/elements/1.1/"
   xmlns:cc="http://creativecommons.org/ns#"
   xmlns:rdf="http://www.w3.org/1999/02/22-rdf-syntax-ns#"
   xmlns:svg="http://www.w3.org/2000/svg"
   xmlns="http://www.w3.org/2000/svg"
   xmlns:xlink="http://www.w3.org/1999/xlink"
   version="1.1"
   id="Layer_1"
   x="0px"
   y="0px"
   width="38.737804"
   height="27.778"
   viewBox="0 0 38.737804 27.778"
   enable-background="new 0 0 115 88"
   xml:space="preserve"><metadata
   id="metadata47"><rdf:RDF><cc:Work
       rdf:about=""><dc:format>image/svg+xml</dc:format><dc:type
         rdf:resource="http://purl.org/dc/dcmitype/StillImage" /><dc:title></dc:title></cc:Work></rdf:RDF></metadata><defs
   id="defs45" />

<g
   style="fill:#099cec;fill-opacity:1"
   id="g40"
   transform="translate(-2.000197,-1.687)">
	<defs
   id="defs33">
		<path
   id="SVGID_6_"
   d="m 18.692,15.471 h 3.947 V 11.605 H 18.692 Z M 4.164,15.47 H 8.111 V 11.604 H 4.164 Z m 3.947,-3.866 h 0.002 z m 0.897,3.866 h 3.947 V 11.604 H 9.008 Z m 4.843,0 h 3.946 v -3.866 h -3.946 z m 9.684,0 h 3.946 V 11.604 H 23.535 Z M 7.588,22.131 c 0,-1.129 0.936,-2.046 2.087,-2.046 1.151,0 2.089,0.917 2.089,2.046 0,1.127 -0.937,2.046 -2.089,2.046 -1.149,0 -2.087,-0.919 -2.087,-2.046 M 32.206,9.347 c -0.835,0.948 -1.084,2.522 -0.97,3.731 0.084,0.89 0.369,1.791 0.928,2.506 -0.425,0.25 -0.908,0.447 -1.338,0.591 -0.874,0.289 -1.825,0.45 -2.75,0.45 H 2.111 l -0.056,0.589 c -0.184,1.955 0.089,3.911 0.915,5.7 l 0.354,0.711 0.041,0.066 c 2.443,4.063 6.729,5.774 11.402,5.774 9.046,0 16.507,-3.957 19.933,-12.318 2.289,0.115 4.631,-0.547 5.752,-2.689 l 0.286,-0.549 -0.542,-0.305 c -1.327,-0.749 -3.091,-0.853 -4.594,-0.418 v 10e-4 C 35.416,11.62 34.367,10.248 33.118,9.265 L 32.623,8.876 Z M 9.008,10.512 h 3.947 V 6.645 H 9.008 Z m 4.843,0 h 3.946 V 6.645 h -3.946 z m 4.841,0 h 3.947 V 6.645 h -3.947 z m 0,-4.958 h 3.947 V 1.687 h -3.947 z" />
	</defs>
	<clipPath
   id="SVGID_7_">
		<use
   xlink:href="#SVGID_6_"
   overflow="visible"
   id="use35"
   style="overflow:visible"
   x="0"
   y="0"
   width="100%"
   height="100%" />
	</clipPath>
	<rect
   x="-3"
   y="-3.313"
   clip-path="url(#SVGID_7_)"
   width="48.737999"
   height="37.778"
   id="rect38"
   style="fill:#099cec;fill-opacity:1" />
</g>
</svg>