<?xml version="1.0" encoding="UTF-8" standalone="no"?>
<svg
   xmlns:dc="http://purl.org/dc/elements/1.1/"
   xmlns:cc="http://creativecommons.org/ns#"
   xmlns:rdf="http://www.w3.org/1999/02/22-rdf-syntax-ns#"
   xmlns:svg="http://www.w3.org/2000/svg"
   xmlns="http://www.w3.org/2000/svg"
   viewBox="4 9 36 29"
   version="1.1">
  <path
     fill="#ffeea3"
     d="M5.5 9.5H36.5V30.5H5.5z"
     id="path8" />
  <path
     d="m 35,11 v 13 l 2,0.614908 V 9 H 5 V 31 H 22 V 29 H 7 V 11"
     id="path10"
     style="fill:#aa6d18" />
  <path
     fill="#ffeea3"
     stroke="#aa6d18"
     stroke-miterlimit="10"
     d="M5.444,12.803l13.37,7.149c1.364,0.729,3.006,0.729,4.37,0 l13.37-7.149"
     id="path12"
     style="stroke-width:2;stroke-miterlimit:10;stroke-dasharray:none" />
  <path
     d="m 34,22 v 6 H 22 v 3 h 15 v -6.385092 z"
     id="path14"
     style="fill:#ffeea3" />
  <g
     id="g20">
    <path
       fill="#bae0bd"
       d="M31.5 32.5L24.5 32.5 24.5 27.5 31.5 27.5 31.5 23.113 39.248 30 31.5 36.887z"
       id="path16" />
    <path
       d="m 32.576271,26 4.788136,4 -4.788136,4 V 33 31.275424 H 31 25.745763 V 28.745763 H 31 32.576271 V 27 26 M 31,22 v 5 h -7 v 6 h 7 v 5 l 9,-8 z"
       id="path18"
       style="fill:#32a449" />
  </g>
</svg>
