<?xml version="1.0" encoding="UTF-8" standalone="no"?>
<svg
   xmlns:dc="http://purl.org/dc/elements/1.1/"
   xmlns:cc="http://creativecommons.org/ns#"
   xmlns:rdf="http://www.w3.org/1999/02/22-rdf-syntax-ns#"
   xmlns:svg="http://www.w3.org/2000/svg"
   xmlns="http://www.w3.org/2000/svg"
   id="svg8"
   version="1.1"
   viewBox="0 0 42.606739 41.554665"
   height="41.554665mm"
   width="42.606739mm">
  <g
     transform="translate(-73.568651,-133.34767)"
     id="layer1">
    <path
       id="path108"
       style="fill:#ffffff;fill-opacity:1;fill-rule:evenodd;stroke:none;stroke-width:0.03527778"
       d="m 94.872195,133.34767 c -11.76408,0 -21.303544,9.53734 -21.303544,21.30319 0,9.41246 6.104114,17.39794 14.568663,20.21494 1.064684,0.19717 1.455561,-0.46221 1.455561,-1.02489 0,-0.508 -0.01976,-2.18617 -0.02893,-3.96628 -5.926664,1.2887 -7.177261,-2.51354 -7.177261,-2.51354 -0.96908,-2.46239 -2.365375,-3.11715 -2.365375,-3.11715 -1.932869,-1.32221 0.145697,-1.29505 0.145697,-1.29505 2.139245,0.14994 3.265664,2.19534 3.265664,2.19534 1.900061,3.25685 4.983692,2.31528 6.199364,1.77095 0.191205,-1.37654 0.743303,-2.31705 1.35255,-2.84869 -4.731808,-0.53869 -9.705975,-2.36537 -9.705975,-10.52829 0,-2.32587 0.832203,-4.22628 2.194983,-5.71818 -0.221191,-0.53693 -0.950383,-2.70334 0.206375,-5.63774 0,0 1.788936,-0.57256 5.859992,2.18369 1.69933,-0.47201 3.52178,-0.70873 5.332236,-0.71684 1.810455,0.008 3.634316,0.24483 5.336825,0.71684 4.06611,-2.75625 5.85258,-2.18369 5.85258,-2.18369 1.15958,2.9344 0.43004,5.10081 0.20884,5.63774 1.36596,1.4919 2.19252,3.39231 2.19252,5.71818 0,8.18232 -4.98369,9.98396 -9.727496,10.51136 0.764117,0.66111 1.444976,1.95757 1.444976,3.94512 0,2.85009 -0.0247,5.1442 -0.0247,5.84623 0,0.56691 0.38347,1.23116 1.46333,1.022 8.45996,-2.82011 14.55632,-10.80277 14.55632,-20.21205 -10e-6,-11.76585 -9.53807,-21.30319 -21.303205,-21.30319" />
    <path
       id="path110"
       style="fill:#ffffff;fill-opacity:1;fill-rule:nonzero;stroke:none;stroke-width:0.03527778"
       d="m 81.637384,163.93456 c -0.04692,0.10618 -0.21343,0.13758 -0.365125,0.0649 -0.154517,-0.0695 -0.2413,-0.21379 -0.191205,-0.31997 0.04586,-0.10901 0.212725,-0.139 0.366888,-0.0667 0.15487,0.0699 0.243064,0.21554 0.189442,0.32173 v 0" />
    <path
       id="path112"
       style="fill:#ffffff;fill-opacity:1;fill-rule:nonzero;stroke:none;stroke-width:0.03527778"
       d="m 82.500278,164.89693 c -0.1016,0.0942 -0.300213,0.0505 -0.434974,-0.0984 -0.139348,-0.14851 -0.165453,-0.34713 -0.06244,-0.44273 0.104775,-0.0942 0.297391,-0.0501 0.437091,0.0984 0.139347,0.15028 0.166511,0.34748 0.06032,0.44273 v 0" />
    <path
       id="path114"
       style="fill:#ffffff;fill-opacity:1;fill-rule:nonzero;stroke:none;stroke-width:0.03527778"
       d="m 83.340242,166.12389 c -0.130527,0.0907 -0.343958,0.006 -0.475897,-0.18379 -0.130528,-0.18944 -0.130528,-0.41663 0.0028,-0.50765 0.132292,-0.091 0.342547,-0.009 0.47625,0.17886 0.130175,0.19226 0.130175,0.41981 -0.0032,0.51258 v 0" />
    <path
       id="path116"
       style="fill:#ffffff;fill-opacity:1;fill-rule:nonzero;stroke:none;stroke-width:0.03527778"
       d="m 84.491003,167.30923 c -0.116769,0.12876 -0.365477,0.0942 -0.547511,-0.0815 -0.186266,-0.1718 -0.238125,-0.41557 -0.121002,-0.54434 0.11818,-0.12911 0.3683,-0.0928 0.551744,0.0815 0.184856,0.17145 0.2413,0.41699 0.116769,0.54434 v 0" />
    <path
       id="path118"
       style="fill:#ffffff;fill-opacity:1;fill-rule:nonzero;stroke:none;stroke-width:0.03527778"
       d="m 86.078503,167.9975 c -0.05151,0.16686 -0.291041,0.24271 -0.532341,0.1718 -0.240947,-0.073 -0.398639,-0.26846 -0.349956,-0.43709 0.0501,-0.16792 0.290689,-0.24694 0.533753,-0.1711 0.240594,0.0727 0.398639,0.2667 0.348544,0.43639 v 0" />
    <path
       id="path120"
       style="fill:#ffffff;fill-opacity:1;fill-rule:nonzero;stroke:none;stroke-width:0.03527778"
       d="m 87.821931,168.1252 c 0.006,0.17569 -0.198614,0.32138 -0.451908,0.32421 -0.254706,0.006 -0.460728,-0.13618 -0.46355,-0.30904 0,-0.17744 0.200025,-0.32173 0.45473,-0.32596 0.253295,-0.005 0.460728,0.13617 0.460728,0.31079 v 0" />
    <path
       id="path122"
       style="fill:#ffffff;fill-opacity:1;fill-rule:nonzero;stroke:none;stroke-width:0.03527778"
       d="m 89.444356,167.84898 c 0.03034,0.17145 -0.145697,0.34749 -0.397228,0.39405 -0.247297,0.0455 -0.47625,-0.0603 -0.507647,-0.23036 -0.03069,-0.17569 0.14852,-0.35172 0.395464,-0.39723 0.251883,-0.0438 0.477308,0.0593 0.509411,0.23354 v 0" />
  </g>
</svg>
